<svg xmlns="http://www.w3.org/2000/svg" width="30" height="25"><g data-name="Group 1"><g data-name="Shopping Cart" fill="#636363"><path data-name="Fill 1" d="M26.126 25a2.885 2.885 0 112.9-2.885 2.9 2.9 0 01-2.9 2.885zm0-4.652a1.768 1.768 0 101.783 1.768 1.775 1.775 0 00-1.783-1.768z"/><path data-name="Fill 3" d="M10.642 25a2.885 2.885 0 112.9-2.885 2.9 2.9 0 01-2.9 2.885zm0-4.652a1.768 1.768 0 101.783 1.768 1.775 1.775 0 00-1.783-1.768z"/><path data-name="Fill 5" d="M0 .628a.615.615 0 00.6.628h2.027l3.649 16.527v.012a.648.648 0 00.07.174.18.18 0 00.009.018.636.636 0 00.117.134l.025.022a.6.6 0 00.15.086l.028.009a.569.569 0 00.179.032H29.4a.629.629 0 000-1.256H7.339L3.691.487c0-.016-.01-.031-.015-.047a.67.67 0 00-.022-.064.538.538 0 00-.028-.055C3.617.3 3.609.286 3.6.27S3.571.235 3.557.218a.393.393 0 00-.034-.04.521.521 0 00-.051-.044C3.459.124 3.447.112 3.433.1a.471.471 0 00-.06-.034C3.36.062 3.346.053 3.332.047A.6.6 0 003.26.024L3.22.012A.618.618 0 003.137 0H.6a.615.615 0 00-.6.628"/><path data-name="Fill 7" d="M30 12.981a.552.552 0 00-.6-.481H9.31a.552.552 0 00-.6.481.552.552 0 00.6.481h20.088a.552.552 0 00.6-.481"/><path data-name="Fill 9" d="M30 9.135a.564.564 0 00-.621-.481H7.395a.564.564 0 00-.621.481.564.564 0 00.621.481h21.984A.564.564 0 0030 9.135"/><path data-name="Fill 11" d="M30 5.289a.558.558 0 00-.613-.481H6.418a.559.559 0 00-.612.481.559.559 0 00.612.481h22.969a.558.558 0 00.612-.481"/></g></g></svg>