<svg xmlns="http://www.w3.org/2000/svg" width="1693.773" height="1725.817"><g data-name="Group 1" fill="none" stroke="#f0b895" stroke-miterlimit="10" stroke-width="3.5"><path data-name="Stroke 1" d="M1486.478 805.163c50.596 143.413 41.257 306.95-55.23 418.48-51.185 59.168-117.783 102.093-191.054 129.727-.052.024-.107.042-.162.062q-8.823 3.321-17.754 6.362c-.388.13-.782.251-1.166.386q-7.928 2.664-15.944 5.082c-.54.165-1.07.357-1.617.521-.51.15-1.025.276-1.532.432a618.877 618.877 0 01-171.484 25.247c-149.287 1.05-295.165-45.6-431.453-106.53-95.139-42.527-188.253-93.088-263.91-164.744S202.16 953.543 191.738 849.848c-6.89-68.536 6.767-137.754 28.288-203.192 27.499-83.596 69.332-164.712 134.94-223.367s157.748-91.987 243.532-72.371c54.798 12.529 102.675 44.836 154.194 67.337 148.727 64.948 317.007 47.373 468.849 100.294 124.03 43.231 219.09 156.661 264.938 286.614z"/><path data-name="Stroke 1" d="M1391.914 919.471c-62.43-73.623-158.49-123.51-259.242-139.69-65.16-10.446-137.133-7.045-189.66 32.887-56.722 43.115-77.828 118.298-87.05 188.95-11.7 89.65-9.414 183.455 25.451 266.878s106.499 154.923 195.183 172.508c102.131 20.268 206.217-32.793 281.695-104.517 40.089-38.088 75.592-83.161 91.483-136.124 33.165-110.62 4.345-207.537-57.86-280.892z"/></g></svg>