<svg xmlns="http://www.w3.org/2000/svg" width="1991.613" height="2406.13"><g data-name="Group 4"><g data-name="Group 3"><path data-name="Stroke 1" d="M887.932 1079.596c117.531 7.03 237.24-34.842 299.636-130.463 33.101-50.725 50.823-109.452 55.742-169.885.006-.043.009-.088.012-.132q.59-7.275.94-14.572c.014-.315.018-.633.039-.95q.289-6.469.378-12.953c.008-.437.037-.871.042-1.315.002-.408-.012-.822-.006-1.233a479.149 479.149 0 00-17.827-133.004c-31.1-111.323-96.965-209.924-171.411-298.336-51.964-61.72-109.475-120.218-178.952-161.218s-152.42-63.401-231.816-49.016c-52.476 9.509-101.071 34.453-145.174 64.442-56.338 38.316-107.777 86.771-137.412 148.12s-34.773 137.034-1.858 196.69c21.025 38.105 55.292 66.835 83.038 100.37 80.095 96.81 102.95 225.797 174.758 327.495 58.658 83.072 163.37 129.59 269.871 135.96z" fill="none" stroke="#f0b895" stroke-miterlimit="10" stroke-width="3.5"/><g data-name="Group 2"><g data-name="Group 1" fill="none" stroke="#f0b895" stroke-miterlimit="10" stroke-width="3.5"><path data-name="Stroke 1" d="M483.503 1285.373c155.612-.807 316.757-67.765 441.14-175.468 80.429-69.648 150.8-162.1 155.917-268.381 5.534-114.769-65.441-218.781-143.135-303.413-98.587-107.388-216.8-201.8-355.947-245.208-139.13-43.407-301.675-29.023-415.288 62.302C35.327 460.368-6.996 643.959 3.358 811.554c5.496 89.009 24.369 179.594 73.306 254.126 102.243 155.646 251.793 220.5 406.839 219.693z"/><path data-name="Stroke 1 Copy 5" d="M540.116 1877.43c88.297 5.273 178.235-26.2 225.115-98.063 24.872-38.12 38.191-82.252 41.89-127.664.006-.033.007-.067.01-.103q.444-5.467.71-10.95c.01-.237.015-.477.029-.714q.217-4.86.284-9.732c.006-.328.026-.655.032-.988.005-.305-.009-.618-.004-.926a360.111 360.111 0 00-13.386-99.949c-23.355-83.651-72.833-157.74-128.755-224.173-39.035-46.375-82.237-90.329-134.434-121.135s-114.504-47.636-174.153-36.815c-39.422 7.148-75.937 25.897-109.07 48.436-42.329 28.797-80.973 65.211-103.246 111.316s-26.132 102.98-1.408 147.803c15.795 28.628 41.534 50.22 62.377 75.417 60.17 72.75 77.33 169.675 131.27 246.092 44.063 62.42 122.728 97.37 202.739 102.147z"/><path data-name="Stroke 1" d="M1392.503 1243.373c155.612-.807 316.757-67.765 441.14-175.468 80.429-69.648 150.8-162.1 155.917-268.381 5.534-114.769-65.441-218.781-143.135-303.413-98.587-107.388-216.8-201.8-355.947-245.208-139.13-43.407-301.675-29.023-415.288 62.302-130.863 105.163-173.186 288.754-162.832 456.349 5.496 89.009 24.369 179.594 73.306 254.126 102.243 155.646 251.793 220.5 406.839 219.693zm-557 1161c155.612-.807 316.757-67.765 441.14-175.468 80.429-69.648 150.8-162.1 155.917-268.381 5.534-114.769-65.441-218.781-143.135-303.413-98.587-107.388-216.8-201.8-355.947-245.208-139.13-43.407-301.675-29.023-415.288 62.302-130.863 105.163-173.186 288.754-162.832 456.349 5.496 89.009 24.369 179.594 73.306 254.126 102.243 155.646 251.793 220.5 406.839 219.693z"/></g></g></g></g></svg>