<svg xmlns="http://www.w3.org/2000/svg" width="920.785" height="940.197"><path data-name="Stroke 1" d="M809.09 495.39c26.212-78.558 19.607-167.506-33.957-227.318-28.416-31.732-65.069-54.472-105.215-68.826a1.018 1.018 0 00-.088-.033q-4.834-1.726-9.725-3.297c-.212-.066-.427-.128-.636-.201q-4.34-1.375-8.727-2.616c-.296-.086-.585-.185-.885-.27-.279-.072-.56-.14-.838-.22a336.903 336.903 0 00-93.595-12.122c-81.281.837-160.263 27.612-233.891 62.07-51.398 24.052-101.617 52.459-142.14 92.185s-70.864 91.979-75.572 148.534c-3.115 37.378 4.965 74.935 17.29 110.359 15.747 45.254 39.275 89.022 75.538 120.338s86.73 48.592 133.25 37.105c29.716-7.338 55.48-25.38 83.317-38.116 80.363-36.764 172.139-28.783 254.31-59.027 67.119-24.708 117.813-87.361 141.565-158.545z" fill="none" stroke="#f0b895" stroke-miterlimit="10" stroke-width="3.5"/></svg>