<svg xmlns="http://www.w3.org/2000/svg" width="920.785" height="1227.507"><g data-name="Group 1" fill="none" stroke="#f0b895" stroke-miterlimit="10" stroke-width="3.5"><path data-name="Stroke 1" d="M630.787 174.75C605.818 95.788 548.193 27.707 469.701 10.8c-41.642-8.97-84.662-5.824-125.58 6.16-.03.006-.06.016-.09.025q-4.926 1.445-9.806 3.049c-.21.07-.421.147-.633.21q-4.32 1.44-8.599 3.014c-.289.105-.581.195-.874.303-.268.104-.536.215-.808.314a336.912 336.912 0 00-82.847 45.206c-65.269 48.453-113.431 116.54-152.746 187.695-27.446 49.67-51.379 102.17-60.814 158.129s-3.269 116.07 26.164 164.592c19.45 32.072 48.063 57.708 78.856 79.124 39.34 27.356 84.102 48.937 131.847 52.96s98.73-11.666 129.616-48.304c19.728-23.403 29.968-53.143 45.004-79.81 43.408-76.98 122.35-124.467 171.053-197.235 39.78-59.44 43.968-139.928 21.343-211.48z"/><path data-name="Stroke 1 Copy 3" d="M111.695 782.699C85.485 704.14 92.09 615.193 145.653 555.38c28.416-31.732 65.069-54.472 105.215-68.826.028-.013.059-.023.088-.033q4.834-1.726 9.725-3.297c.212-.066.427-.128.636-.201q4.34-1.375 8.727-2.616c.296-.086.585-.185.885-.27.279-.072.56-.14.838-.22a336.903 336.903 0 0193.595-12.122c81.281.837 160.263 27.612 233.891 62.07 51.398 24.052 101.617 52.459 142.14 92.185s70.864 91.979 75.572 148.534c3.115 37.378-4.965 74.935-17.29 110.359-15.747 45.254-39.275 89.022-75.538 120.338s-86.73 48.592-133.25 37.105c-29.716-7.338-55.48-25.38-83.317-38.116-80.36-36.766-172.138-28.784-254.308-59.028-67.121-24.707-117.815-87.36-141.567-158.544z"/></g></svg>