<svg width="22" height="22" fill="none" xmlns="http://www.w3.org/2000/svg"><mask id="a" maskUnits="userSpaceOnUse" x="0" y="0" width="22" height="22"><path fill-rule="evenodd" clip-rule="evenodd" d="M0 0h22v22H0V0z" fill="#fff"/></mask><g mask="url(#a)"><path fill-rule="evenodd" clip-rule="evenodd" d="M1.618 2.122c-.089.14-.048-.037-.239.267a3.913 3.913 0 01-.205.304l-.574.94c-.116.245-.144.369-.236.54l-.252.987c-.02.157-.047.287-.068.437-.043.305-.04.632-.04.96.001.837.033 9.847-.004 10.006.143.068.126.026.167.203.018.078.038.214.054.305.031.175.245.932.312 1.059.034.062.09.116.14.214.04.081.049.156.091.237.056.11.086.098.136.222.078.191.055.093.14.217.048.07.06.163.11.255l.614.752c.268.242.41.432.74.663.073.052.123.073.198.133l.197.162c.11.08.124.048.22.11.115.075.049.079.212.137.12.043.128.055.23.108.181.096.086.083.342.226l.018.011.078.03c.445.089.108.001.345.12.028.014.041.019.06.027.269.117.459.042.75.1l.59.1c1.822.078 3.743.034 5.604.028l2.817-.006c.463 0 .924-.016 1.363-.022.496-.006.863-.082 1.303-.094.087-.059.711-.148 1.045-.295.04-.018.076-.032.105-.046.1-.048.2-.124.342-.165.21-.061.07-.001.224-.106.048-.033.063-.032.118-.062.054-.029.065-.041.112-.068.09-.05.13-.055.212-.12.304-.241.344-.158.63-.39.104-.086.107-.038.187-.137l.526-.513c.036-.09.217-.287.296-.373l.311-.404c.027-.042.013-.015.036-.055.027-.048.022-.049.049-.1l.345-.576c.067-.106.045-.142.097-.235.195-.354.256-.8.406-1.134.062-.137.053-.366.078-.52.015-.388.047-.758.047-1.179l.002-8.442c0-.934.027-1.344-.206-2.215-.27-1.008-.64-1.593-1.229-2.402-.078-.108-.205-.207-.304-.318-.394-.443-1.198-1.028-1.732-1.29C16.96-.055 16.073 0 14.286 0H6.865C5.923 0 5.53.057 4.678.262l-.499.142-.425.177c-.055.027-.066.033-.13.055-.164.058-.529.3-.66.38-.703.434-.816.67-1.238 1.034-.055.047-.011.01-.06.044l-.048.028zm4.168 5.89c-.043.142-.242.514-.328.747-.104.277-.219.521-.281.816-.19.891-.177 1.077-.144 2.017l.02-.132c.063.887.175.71.223 1.088.023.176.023.069.064.211.128.453.165.42.21.564.039.118.306.602.373.704l.226.313c.121.254.264.389.443.602l.26.277.014.015.016.014.03.029c.043.038.032.029.08.065l.07.05.069.055c.093.083.365.328.453.376.204.112 0 .074.342.195l.436.23c.053.028.056.024.103.046.142.068.086-.006.126.125.396.006.365.142.781.194.272.034.164.026.267.072.162.076.973.123 1.194.125.483.004.805-.006 1.22-.096.11-.025.185-.01.298-.04.494-.132.295-.027.755-.233.162-.072.34-.093.472-.184.14-.097.308-.15.46-.235l.594-.365a.296.296 0 01.016-.014l.017-.013.133-.104.837-.835.425-.553c.025-.118.078-.168.139-.256.148-.216.513-1.073.577-1.29.048-.162.156-.722.185-.951.075-.59.107-1.508-.065-2.08-.035-.116-.026-.191-.057-.3a8.519 8.519 0 00-.184-.586l-.346-.788c-.054-.083-.058-.045-.154-.2-.177-.289-.155-.32-.386-.569l-.463-.493-.424-.325c-.07-.056-.12-.113-.191-.164-.12-.087-.138-.047-.246-.152-.212-.206-.721-.35-.894-.45-.06-.034-.057-.045-.106-.063-.038-.013-.11-.024-.146-.035-.301-.091-.333-.058-.466-.117-.108-.047-.782-.133-.945-.165a5.138 5.138 0 00-1.463-.05c-.214.028-.606.033-.856.113l-.138.042-.277.085c-.182.044-.724.311-.822.343a1.027 1.027 0 00-.25.11c-.272.16-.65.424-.886.61l-.164.137c-.025.018-.032.021-.052.037-.095.075-.474.509-.558.577-.075.063-.436.614-.636.854zm1.265 2.913c0 .368.066.98.207 1.27.096.194-.007.102.154.321.105.145.002.102.225.371.094.113.03.1.135.224.145.17.149.072.221.242.066.156.037.037.188.212l.03.033a.33.33 0 00.016.015c.227.207.051.147.24.27l.28.199c.08.063.03.056.125.113l.48.268a4.875 4.875 0 001.663.318c.678.002 1.497-.14 2.043-.535.335-.243.717-.518.984-.844l.173-.246.026-.035.1-.138.279-.463.241-.716c.066-.453.153-1.026.086-1.515-.041-.295-.067-.151-.107-.606-.012-.132-.265-.74-.337-.86l-.428-.527c-.073-.073-.14-.164-.227-.25l-.278-.204a5.383 5.383 0 00-.963-.478c-.178-.065-.565-.201-.743-.21-.453-.021-1.383-.11-1.825.043-.161.056-.2.057-.38.1-.509.118-.639.334-.798.401-.16.067-.3.19-.422.303-.03.028-.095.092-.126.115-.24.176-.282.213-.468.487-.336.497-.344.52-.593 1.074l-.192.748c-.015.142-.008.352-.009.5zm11.442-6.022c0-.36-.072-.717-.354-.95-.272-.227-.48-.358-.975-.358a1.44 1.44 0 00-.778.223 3.648 3.648 0 00-.285.227c-.047.052-.05.084-.093.146-.041.057-.087.095-.115.15-.12.238-.169.635-.112.878.016.068.03.069.057.183.067.283.31.574.593.69.522.21.895.293 1.434 0 .101-.054.073-.053.173-.129l.034-.026c.005-.004.012-.01.018-.013.234-.188.143-.16.256-.346.182-.299.147-.21.147-.675zM1.753 5.976c-.018-.448.041-.33.063-.572a.656.656 0 01.063-.276c.072-.153.022-.098.063-.256.044-.167.059-.013.089-.234.027-.193.013-.12.093-.249.134-.213.175-.435.34-.616.049-.054.08-.137.127-.2l.571-.596.016-.014a.269.269 0 01.016-.015l.033-.028c.208-.179.443-.418.74-.58.264-.146-.069-.015.414-.243.513-.243.445-.17.953-.34.682-.226 1.68-.135 2.5-.135l5.27.001c.82 0 2.5-.055 3.229.07l.521.116c.266.118.408.097.54.133l.512.288c.21.103.264.22.453.353.205.145.379.209.585.408.076.075.066.109.145.183.336.31.084.165.262.366.103.117.204.247.28.382.043.078.067.142.111.214l.012.018.012.018.012.019.085.157c.059.172-.009.054.096.29.055.123-.005.023.088.172l.156.476c.024.12.033.156.061.26.065.245.038 1.589.038 1.895 0 1.51.063 8.307-.049 8.962-.037.221-.046.352-.125.533-.11.253-.118.379-.21.59l-.155.324c-.016.03-.05.086-.067.114-.19.286-.074.248-.407.582l-.367.4c-.29.118.05-.05-.281.238-.06.052-.062.084-.12.146-.061.063-.064.053-.144.101-.114.07-.201.128-.31.199-.209.134-.067.057-.318.19l-.74.312c-.295.072-.505.151-.843.184-.648.062-1.38.034-2.061.031a520.36 520.36 0 00-2.09-.004c-1.076 0-5.324.041-6.219-.057-.436-.048-.364-.096-.62-.158-.442-.108-.88-.312-1.272-.533l-.307-.204a1.656 1.656 0 01-.256-.252c-.163-.202-.15-.014-.279-.232-.153-.255-.07-.052-.242-.293-.117-.165-.192-.276-.351-.424l-.016-.014c-.119-.11-.082-.098-.172-.306-.054-.125-.025-.066-.084-.153-.226-.326-.091-.417-.258-.788-.09-.203-.087-.185-.113-.4-.024-.195-.045-.252-.078-.42-.07-.36-.022-5.481-.02-6.099 0-.54-.052-3.817.025-4.034z" fill="#F5F4F2"/></g></svg>