<svg width="17" height="22" fill="none" xmlns="http://www.w3.org/2000/svg"><mask id="a" maskUnits="userSpaceOnUse" x="0" y="0" width="17" height="22"><path fill-rule="evenodd" clip-rule="evenodd" d="M0 0h16.86v21.935H0V0z" fill="#fff"/></mask><g mask="url(#a)"><path fill-rule="evenodd" clip-rule="evenodd" d="M2.082 12.42C.666 11.618.032 9.49.002 7.943-.059 4.852 2.213 1.897 4.994.73 6.43.127 8.492-.288 11.215.246c0 0 4.056.909 5.335 4.985 0 0 1.035 3.168-.68 6.666 0 0-1.28 3.415-4.9 3.883 0 0-2.791.51-3.907-1.57-.33 1.315-.621 2.785-1.062 4.057-.16.462-.4 1.06-.708 1.562-.196.37-1.254 2.214-1.54 2.1-.268-.104-.305-2.756-.298-3.018 0-1.153.338-2.32.597-3.442l1.24-5.359s-.79-1.542-.204-3.346c0 0 .503-1.926 2.267-1.93 1.785-.005 1.791 1.95 1.399 3.245-.079.261-.169.548-.261.844-.284.914-.589 1.92-.651 2.536-.019.19-.016.402.021.618.083.478.34.981.967 1.338 0 0 1.17.653 2.49-.176 1.228-.772 1.868-2.29 2.206-3.646.667-2.684.432-5.832-2.438-7.089-1.967-.86-4.893-.411-6.45.967-2.04 1.806-3.126 5.178-1.349 7.15.288.29.22.472.14.809l-.218.918c-.132.61-.78.27-1.129.073" fill="#F5F4F2"/></g></svg>