<svg width="27" height="22" fill="none" xmlns="http://www.w3.org/2000/svg"><mask id="a" maskUnits="userSpaceOnUse" x="0" y="0" width="27" height="22"><path fill-rule="evenodd" clip-rule="evenodd" d="M0 0h26.65v21.856H0V0z" fill="#fff"/></mask><g mask="url(#a)"><path fill-rule="evenodd" clip-rule="evenodd" d="M13.11 6.788s-.91-3.061 1.687-5.344c2.283-2.008 5.48-1.946 7.655.34 0 0 2.208-.461 3.471-1.383 0 0-.484 1.92-2.412 3.084 0 0 1.813-.204 3.14-.87 0 0-1.034 1.665-2.744 2.842.408 5.445-2.764 11.366-7.411 14.152C11.32 22.713 5.174 22.565 0 19.39c0 0 4.355.659 8.081-2.31 0 0-3.675.23-5.155-3.84 0 0 1.033.332 2.475-.09 0 0-4.275-.742-4.428-5.427 0 0 .995.615 2.527.665 0 0-4.033-2.265-1.762-7.384 0 0 3.854 5.606 11.372 5.785" fill="#F5F4F2"/></g></svg>