<svg data-name="Group 4" xmlns="http://www.w3.org/2000/svg" width="33" height="28"><defs><clipPath id="a"><path data-name="Clip 2" d="M0 0h33v28H0z" fill="none"/></clipPath></defs><g data-name="Group 3" clip-path="url(#a)"><path data-name="Fill 1" d="M16.506 28a.464.464 0 01-.26-.072c-.587-.4-1.185-.808-1.763-1.2-2.677-1.818-5.446-3.7-8.015-5.742-3.3-2.627-5.217-5.177-6.026-8.023A11.074 11.074 0 012.17 3.214 8.385 8.385 0 015.75.445 6.813 6.813 0 018.216 0a7.951 7.951 0 012.461.4A9.724 9.724 0 0116.5 5.884a10.168 10.168 0 012.66-3.677A8.866 8.866 0 0124.319.015c.151-.01.3-.015.456-.015a7.418 7.418 0 015.24 2.266 11.059 11.059 0 012.142 11.884C30.753 17.515 28 19.9 25.5 21.79c-2.771 2.092-5.594 4.017-8.732 6.138a.475.475 0 01-.262.072zM8.285 1.035c-3.192 0-5.409 2.427-6.419 4.7a10.448 10.448 0 00.468 9.151c1.512 2.8 4.135 4.871 6.476 6.6 2.252 1.66 4.6 3.265 6.874 4.817l.025.017.8.547c3.011-2.035 5.528-3.771 8.024-5.626 2.679-1.992 5.336-4.262 6.628-7.358a10.592 10.592 0 00.569-6.367c-.739-3.217-3.382-6.474-7-6.474a6.3 6.3 0 00-1.212.12A8.727 8.727 0 0017 7.6a.522.522 0 01-1 0 8.606 8.606 0 00-7.2-6.542 5.484 5.484 0 00-.515-.023z" fill="#eb7e68"/></g><path data-name="Fill 4" d="M25.512 14.505c-.788.007-1.575.008-2.363.01L22.37 12.1c-.124-.385-.729-.562-.924-.125L19.8 15.691l-1.49-5.273c-.129-.458-.892-.535-.975 0l-1.283 8.317-1.169-5.345-.246-1.127a.5.5 0 00-.975 0l-1.177 4.251-1-6.141c-.087-.535-.842-.457-.975 0l-1.195 4.106-1.827.026a.523.523 0 000 1.044c.735-.009 1.47-.021 2.205-.032a.521.521 0 00.487-.383l.678-2.334 1.014 6.205c.087.531.847.462.975 0l1.245-4.5L15.4 20.5l.247 1.127a.5.5 0 00.975 0l1.342-8.7 1.236 4.39c.112.4.734.552.924.125l1.683-3.783.493 1.518a.523.523 0 00.487.383c.909 0 1.818 0 2.726-.011a.523.523 0 000-1.044" fill="#eb7e68"/></svg>