<svg data-name="Group 5" xmlns="http://www.w3.org/2000/svg" width="26" height="29"><defs><clipPath id="a"><path data-name="Clip 2" d="M0 0h26v29H0z" fill="none"/></clipPath></defs><g data-name="Group 3"><path data-name="Clip 2" d="M0 0h26v29H0z" fill="none"/><g data-name="Group 3" clip-path="url(#a)"><path data-name="Fill 1" d="M21.406 29H10.3a.579.579 0 01-.58-.577V26.5a1.375 1.375 0 00-1.376-1.37H6.253a3.2 3.2 0 01-3.2-3.187v-3.929l-1.931-.553a1.548 1.548 0 01-.806-2.424l2.737-4v-.077a10.55 10.55 0 01.087-1.3 8.8 8.8 0 012.937-6.098A11.421 11.421 0 019.938.921 11.9 11.9 0 0114.556 0a12.3 12.3 0 011.919.151 11.142 11.142 0 019.347 8.854 10.678 10.678 0 01-3.836 10.288v9.13a.579.579 0 01-.58.577zm-6.85-27.846A10.61 10.61 0 006.9 4.374l-.03.026A7.662 7.662 0 004.3 9.747v.043a9.523 9.523 0 00-.081 1.174v.256a.576.576 0 01-.1.326L1.265 15.7l-.022.03a.4.4 0 00.2.622l2.348.673a.58.58 0 01.419.554v4.361a2.039 2.039 0 002.041 2.032h2.091a2.533 2.533 0 012.535 2.528v1.347h9.949v-8.831a.575.575 0 01.223-.455 9.529 9.529 0 003.631-9.35 9.982 9.982 0 00-8.387-7.919 11.14 11.14 0 00-1.737-.138z" fill="#eb7e68"/></g></g><path data-name="Fill 4" d="M15.432 18h-1.864a.566.566 0 01-.541-.4l-.293-1-.588-.243-.914.5a.566.566 0 01-.27.069.558.558 0 01-.4-.165l-1.317-1.324a.558.558 0 01-.1-.669l.5-.915-.243-.588-1-.293a.561.561 0 01-.402-.54v-1.864a.566.566 0 01.405-.541l1-.293.243-.589-.5-.914a.564.564 0 01.1-.669l1.315-1.317a.563.563 0 01.669-.1l.914.5.588-.242.293-1A.566.566 0 0113.568 5h1.864a.566.566 0 01.54.405l.293 1 .588.242.915-.5a.563.563 0 01.669.1l1.318 1.319a.566.566 0 01.1.669l-.5.914.243.589 1 .293a.566.566 0 01.4.541v1.86a.561.561 0 01-.4.541l-1 .293-.243.588.5.915a.56.56 0 01-.1.669l-1.318 1.318a.563.563 0 01-.669.1l-.915-.5-.588.243-.293 1a.566.566 0 01-.54.401zm-3.319-2.836a.561.561 0 01.214.042l1.087.449a.559.559 0 01.325.363l.251.856h1.02l.25-.856a.557.557 0 01.326-.363l1.086-.449a.565.565 0 01.486.027l.78.428.722-.721-.428-.781a.562.562 0 01-.027-.486l.449-1.086a.557.557 0 01.363-.326l.856-.25V10.99l-.856-.25a.562.562 0 01-.363-.326l-.449-1.087a.561.561 0 01.027-.485l.428-.781-.721-.721-.78.428a.564.564 0 01-.27.069.557.557 0 01-.216-.043l-1.087-.449a.561.561 0 01-.326-.363l-.25-.856h-1.02l-.251.856a.562.562 0 01-.325.363l-1.087.448a.556.556 0 01-.215.043.563.563 0 01-.27-.069l-.781-.427-.721.721.428.781a.558.558 0 01.026.485l-.449 1.087a.566.566 0 01-.363.326l-.856.25v1.02l.856.25a.561.561 0 01.363.326l.448 1.086a.559.559 0 01-.026.486l-.427.782.721.721.781-.428a.565.565 0 01.271-.069zm2.387-.942a2.722 2.722 0 112.722-2.722 2.725 2.725 0 01-2.722 2.722zm0-4.322a1.6 1.6 0 101.6 1.6 1.6 1.6 0 00-1.6-1.6z" fill="#eb7e68"/></svg>