<svg data-name="Group 5" xmlns="http://www.w3.org/2000/svg" width="28" height="28"><defs><clipPath id="a"><path data-name="Clip 4" d="M0 0h28v28H0z" fill="none"/></clipPath></defs><path data-name="Clip 4" d="M0 0h28v28H0z" fill="none"/><g data-name="Group 5" clip-path="url(#a)"><path data-name="Fill 3" d="M18.492 28a5.988 5.988 0 01-3.661-1.5H10.98V25H7.013a3.523 3.523 0 01-3.519-3.519v-6.957H2.021A2.024 2.024 0 010 12.5V2.021A2.024 2.024 0 012.021 0h4.992a2.024 2.024 0 012.021 2.021v7.488a2.024 2.024 0 01-2.021 2.021H2.021a.973.973 0 100 1.946h8.984a.973.973 0 100-1.946h-1.5v-1.049h1.5a2.02 2.02 0 01.973.25V3.02a.974.974 0 00-.973-.973H9.55V1h1.455a2.024 2.024 0 012.022 2.02v9.48a2.024 2.024 0 01-2.021 2.021H9.034v.979a2.473 2.473 0 002.47 2.47h6.988a2.473 2.473 0 002.47-2.47v-1.475H19.49a2.523 2.523 0 01-2.521-2.52V1.523A1.525 1.525 0 0118.492 0h7.986A1.524 1.524 0 0128 1.523V11.5a2.523 2.523 0 01-2.521 2.52H22.01v1.48a3.523 3.523 0 01-3.518 3.519H11.5A3.523 3.523 0 017.986 15.5v-.973H4.542v6.962a2.473 2.473 0 002.47 2.47h3.968v-1.5h3.851a5.99 5.99 0 013.661-1.5 6.627 6.627 0 014.041 1.228 3.217 3.217 0 011.474 2.291 3.217 3.217 0 01-1.474 2.292A6.627 6.627 0 0118.492 28zm0-5.99a5.546 5.546 0 00-3.468 1.69v1.57a5.542 5.542 0 003.469 1.685c3.123 0 4.467-1.875 4.467-2.471s-1.345-2.474-4.468-2.474zm-6.464 1.5v1.946h1.947v-1.948zm6.464-22.46a.475.475 0 00-.474.474V11.5a1.474 1.474 0 001.472 1.472h5.989a1.474 1.474 0 001.472-1.472V1.523a.474.474 0 00-.473-.474zm-16.471 0a.974.974 0 00-.973.973v8.709a2.03 2.03 0 01.973-.249h4.992a.974.974 0 00.973-.973V2.021a.974.974 0 00-.973-.973z" fill="#eb7e68"/></g></svg>