<svg data-name="Group 8" xmlns="http://www.w3.org/2000/svg" width="26" height="25"><defs><clipPath id="a"><path data-name="Clip 2" d="M0 0h26v25H0z" fill="none"/></clipPath></defs><g data-name="Group 3"><path data-name="Clip 2" d="M0 0h26v25H0z" fill="none"/><g data-name="Group 3" clip-path="url(#a)"><path data-name="Fill 1" d="M23.051 25H2.949A2.942 2.942 0 010 22.073V2.928A2.942 2.942 0 012.949 0h20.1A2.942 2.942 0 0126 2.928v19.145A2.942 2.942 0 0123.051 25zM2.949.968a1.969 1.969 0 00-1.974 1.96v19.145a1.969 1.969 0 001.975 1.959h20.1a1.969 1.969 0 001.975-1.959V2.928a1.969 1.969 0 00-1.974-1.96z" fill="#eb7e68"/></g></g><path data-name="Fill 4" d="M16.948 11a.519.519 0 01-.35-.132A5.306 5.306 0 0013 9.505a5.3 5.3 0 00-3.6 1.363.529.529 0 01-.7 0L5.145 7.614a.425.425 0 010-.64A11.583 11.583 0 0113 4a11.583 11.583 0 017.855 2.975.427.427 0 010 .64L17.3 10.868a.519.519 0 01-.352.132zM13 8.6a6.42 6.42 0 013.933 1.32L19.8 7.3A10.634 10.634 0 0013 4.905 10.634 10.634 0 006.2 7.3l2.866 2.62A6.426 6.426 0 0113 8.6z" fill="#eb7e68"/><path data-name="Fill 6" d="M14.5 10a.474.474 0 01-.236-.063.537.537 0 01-.2-.708l1.004-1.956a.483.483 0 01.672-.21.537.537 0 01.2.709l-1.008 1.955A.493.493 0 0114.5 10" fill="#eb7e68"/></svg>