<svg xmlns="http://www.w3.org/2000/svg" width="67.028" height="76.205"><g data-name="Group 21" fill="none" stroke="#f0b996" stroke-miterlimit="10" stroke-width="2"><path data-name="Stroke 1" d="M17.266 15.392c-1.645-4.98-7.854-6.085-9.617-5.025-2.017 1.215 2.453 8.947-2.35 23.288-1.987 5.913-3.832 11.683-4.206 16.586-1.44 18.926 16.539 28.495 28.431 23.4l17.488-7.602"/><path data-name="Stroke 3" d="M54.671 32.124V6.827a5.023 5.023 0 00-4.127-5.061C45.241 1.259 40.555 1 35.854 1s-9.405.259-14.762.775a5.012 5.012 0 00-4.08 5.052v54.352a5.017 5.017 0 004.13 5.058c5.3.515 10.368.763 15.485.763a118.686 118.686 0 0013.394-.656c2.391-.369 4.991-2.032 4.991-4.428"/><path data-name="Stroke 5" d="M63.685 43.495A4.208 4.208 0 0059.745 41a4.265 4.265 0 00-1.588.3l-4.545 1.859a4.042 4.042 0 00-2.274 5.349A4.216 4.216 0 0055.278 51a4.24 4.24 0 001.589-.3l4.545-1.861a4.035 4.035 0 002.273-5.344z"/><path data-name="Stroke 7" d="M56.965 60.732l3.847-1.675a3.716 3.716 0 001.921-4.812A3.55 3.55 0 0059.405 52a3.429 3.429 0 00-1.347.268l-3.846 1.674a3.719 3.719 0 00-1.923 4.814A3.553 3.553 0 0055.623 61a3.408 3.408 0 001.342-.268z"/><path data-name="Stroke 9" d="M51.324 38.364A4.009 4.009 0 0055.08 41a3.717 3.717 0 001.514-.315l2.939-1.393A4.438 4.438 0 0061.7 33.64 4.014 4.014 0 0057.943 31a3.689 3.689 0 00-1.516.317l-2.937 1.4a4.436 4.436 0 00-2.166 5.647z"/><path data-name="Stroke 11" d="M32.012 60.5h9" stroke-linecap="round"/><path data-name="Stroke 13" d="M35.012 6.5h3" stroke-linecap="round"/><path data-name="Stroke 15" d="M17.012 54.5h35"/><path data-name="Stroke 17" d="M17.012 10.5h38"/><path data-name="Stroke 19" d="M55.012 27l8.126-3.576a5.084 5.084 0 002.512-6.5 4.148 4.148 0 00-5.5-2.67c-.733.217-4.172 1.467-5.138 1.885"/></g></svg>