<svg xmlns="http://www.w3.org/2000/svg" width="35.13" height="40.107"><g data-name="Group 21" fill="none" stroke="#f0b996" stroke-miterlimit="10" stroke-width="2"><path data-name="Stroke 1" d="M9.488 8.738c-.859-2.529-4.097-3.09-5.018-2.552-1.053.614 1.28 4.543-1.226 11.824a36.793 36.793 0 00-2.195 8.42C.298 36.039 9.678 40.9 15.883 38.312l9.124-3.862"/><path data-name="Stroke 3" d="M28.828 17.033V4a2.6 2.6 0 00-2.173-2.605C23.864 1.133 21.398 1 18.924 1s-4.95.133-7.769.4A2.6 2.6 0 009.007 4v28a2.6 2.6 0 002.173 2.605 85.42 85.42 0 008.15.393 63.81 63.81 0 007.049-.338c1.26-.19 2.627-1.047 2.627-2.281"/><path data-name="Stroke 5" d="M32.831 23.247A2.286 2.286 0 0030.707 22a2.453 2.453 0 00-.855.149l-2.445.931a1.976 1.976 0 00-1.224 2.674A2.291 2.291 0 0028.307 27a2.438 2.438 0 00.856-.15l2.444-.93a1.973 1.973 0 001.224-2.673z"/><path data-name="Stroke 7" d="M29.707 31.851l2.1-.93a2.079 2.079 0 001.049-2.674A1.936 1.936 0 0031.04 27a1.841 1.841 0 00-.733.149l-2.1.93a2.081 2.081 0 00-1.049 2.674A1.938 1.938 0 0028.977 32a1.83 1.83 0 00.73-.149z"/><path data-name="Stroke 9" d="M26.177 19.682A2.191 2.191 0 0028.226 21a2.186 2.186 0 00.826-.157l1.6-.7a2.147 2.147 0 001.185-2.823A2.194 2.194 0 0029.788 16a2.169 2.169 0 00-.827.159l-1.6.7a2.146 2.146 0 00-1.184 2.823z"/><path data-name="Stroke 11" d="M17.007 31.5h5" stroke-linecap="round"/><path data-name="Stroke 13" d="M18.007 3.5h2" stroke-linecap="round"/><path data-name="Stroke 15" d="M9.007 28.5h18"/><path data-name="Stroke 17" d="M9.007 5.5h20"/><path data-name="Stroke 19" d="M28.007 15l4.432-1.926a2.724 2.724 0 001.37-3.5 2.268 2.268 0 00-3.002-1.437c-.4.117-2.273.79-2.8 1.015"/></g></svg>