<svg id="Shopping_Cart" data-name="Shopping Cart" xmlns="http://www.w3.org/2000/svg" width="31.817" height="25" viewBox="0 0 31.817 25">
  <path id="Fill_1" data-name="Fill 1" d="M2.9,5.769a2.885,2.885,0,1,1,2.9-2.885A2.9,2.9,0,0,1,2.9,5.769Zm0-4.652A1.768,1.768,0,1,0,4.683,2.885,1.775,1.775,0,0,0,2.9,1.117Z" transform="translate(23.226 19.231)" fill="#636363"/>
  <path id="Fill_3" data-name="Fill 3" d="M2.9,5.769a2.885,2.885,0,1,1,2.9-2.885A2.9,2.9,0,0,1,2.9,5.769Zm0-4.652A1.768,1.768,0,1,0,4.683,2.885,1.775,1.775,0,0,0,2.9,1.117Z" transform="translate(7.742 19.231)" fill="#636363"/>
  <path id="Fill_5" data-name="Fill 5" d="M0,.628a.615.615,0,0,0,.6.628H2.627L6.276,17.783s0,.008,0,.012a.648.648,0,0,0,.07.174.18.18,0,0,0,.009.018.636.636,0,0,0,.117.134l.025.022a.6.6,0,0,0,.15.086l.028.009a.569.569,0,0,0,.179.032H29.4a.629.629,0,0,0,0-1.256H7.339L3.691.487c0-.016-.01-.031-.015-.047A.67.67,0,0,0,3.654.376.538.538,0,0,0,3.626.321C3.617.3,3.609.286,3.6.27S3.571.235,3.557.218a.393.393,0,0,0-.034-.04A.521.521,0,0,0,3.472.134C3.459.124,3.447.112,3.433.1a.471.471,0,0,0-.06-.034C3.36.062,3.346.053,3.332.047A.6.6,0,0,0,3.26.024L3.22.012A.618.618,0,0,0,3.137,0c-.011,0-.021,0-.032,0H.6A.615.615,0,0,0,0,.628" fill="#636363"/>
  <path id="Fill_7" data-name="Fill 7" d="M10,.65C10,.291,9.873,0,9.717,0H.283C.127,0,0,.291,0,.65s.127.65.283.65H9.717c.156,0,.283-.291.283-.65" transform="matrix(0.174, -0.985, 0.985, 0.174, 28.8, 18.059)" fill="#636363"/>
  <path id="Fill_9" data-name="Fill 9" d="M25-.5c0,.276-.3.5-.668.5H.668C.3,0,0-.224,0-.5S.3-1,.668-1H24.332C24.7-1,25-.776,25-.5" transform="translate(6.774 8.654)" fill="#636363"/>
</svg>
