<svg xmlns="http://www.w3.org/2000/svg" width="30" height="25" viewBox="0 0 30 25">
  <g id="Group_1" data-name="Group 1" transform="translate(-1116 -37)">
    <g id="Shopping_Cart" data-name="Shopping Cart" transform="translate(1116 37)">
      <path id="Fill_1" data-name="Fill 1" d="M2.9,5.769a2.885,2.885,0,1,1,2.9-2.885A2.9,2.9,0,0,1,2.9,5.769Zm0-4.652A1.768,1.768,0,1,0,4.683,2.885,1.775,1.775,0,0,0,2.9,1.117Z" transform="translate(23.226 19.231)" fill="#636363"/>
      <path id="Fill_3" data-name="Fill 3" d="M2.9,5.769a2.885,2.885,0,1,1,2.9-2.885A2.9,2.9,0,0,1,2.9,5.769Zm0-4.652A1.768,1.768,0,1,0,4.683,2.885,1.775,1.775,0,0,0,2.9,1.117Z" transform="translate(7.742 19.231)" fill="#636363"/>
      <path id="Fill_5" data-name="Fill 5" d="M0,.628a.615.615,0,0,0,.6.628H2.627L6.276,17.783s0,.008,0,.012a.648.648,0,0,0,.07.174.18.18,0,0,0,.009.018.636.636,0,0,0,.117.134l.025.022a.6.6,0,0,0,.15.086l.028.009a.569.569,0,0,0,.179.032H29.4a.629.629,0,0,0,0-1.256H7.339L3.691.487c0-.016-.01-.031-.015-.047A.67.67,0,0,0,3.654.376.538.538,0,0,0,3.626.321C3.617.3,3.609.286,3.6.27S3.571.235,3.557.218a.393.393,0,0,0-.034-.04A.521.521,0,0,0,3.472.134C3.459.124,3.447.112,3.433.1a.471.471,0,0,0-.06-.034C3.36.062,3.346.053,3.332.047A.6.6,0,0,0,3.26.024L3.22.012A.618.618,0,0,0,3.137,0c-.011,0-.021,0-.032,0H.6A.615.615,0,0,0,0,.628" fill="#636363"/>
      <path id="Fill_7" data-name="Fill 7" d="M21.29.481a.552.552,0,0,0-.6-.481H.6A.552.552,0,0,0,0,.481.552.552,0,0,0,.6.962H20.688a.552.552,0,0,0,.6-.481" transform="translate(8.71 12.5)" fill="#636363"/>
      <path id="Fill_9" data-name="Fill 9" d="M23.226.481A.564.564,0,0,0,22.605,0H.621A.564.564,0,0,0,0,.481.564.564,0,0,0,.621.962H22.605a.564.564,0,0,0,.621-.481" transform="translate(6.774 8.654)" fill="#636363"/>
      <path id="Fill_11" data-name="Fill 11" d="M24.194.481A.558.558,0,0,0,23.581,0H.612A.559.559,0,0,0,0,.481.559.559,0,0,0,.612.962H23.581a.558.558,0,0,0,.612-.481" transform="translate(5.806 4.808)" fill="#636363"/>
    </g>
  </g>
</svg>
