<svg xmlns="http://www.w3.org/2000/svg" width="1991.613" height="2406.13" viewBox="0 0 1991.613 2406.13">
  <g id="Group_4" data-name="Group 4" transform="translate(-941.136 -3336.62)">
    <g id="Group_3" data-name="Group 3">
      <path id="Stroke_1" data-name="Stroke 1" d="M245.521,17.45C132.674,51.043,34.506,131.332,8.576,242.527-5.18,301.514-1.747,362.761,14.3,421.231c.009.043.022.086.034.129q1.934,7.038,4.1,14.015c.095.3.2.6.289.906q1.941,6.177,4.075,12.3c.142.414.263.832.41,1.251.138.384.293.768.427,1.156A479.149,479.149,0,0,0,85.877,569.874c67.3,93.972,162.916,164.1,263.111,221.718,69.94,40.225,143.99,75.525,223.3,90.29s164.913,7.447,234.6-33.226c46.059-26.883,83.192-66.943,114.378-110.208,39.836-55.274,71.6-118.4,78.465-186.185S985.539,411.6,934.206,366.8c-32.79-28.616-74.817-43.894-112.36-65.917C713.471,237.305,647.878,123.915,545.618,52.91,462.085-5.09,347.777-12.99,245.521,17.45Z" transform="translate(2053.814 4516.587) rotate(-160)" fill="none" stroke="#f0b895" stroke-miterlimit="10" stroke-width="3.5"/>
      <g id="Group_2" data-name="Group 2">
        <g id="Group_1" data-name="Group 1">
          <path id="Stroke_1-2" data-name="Stroke 1" d="M481.639,1015.993c155.612-.807,316.757-67.765,441.14-175.468,80.429-69.648,150.8-162.1,155.917-268.381,5.534-114.769-65.441-218.781-143.135-303.413-98.587-107.388-216.8-201.8-355.947-245.208C440.484-19.884,277.939-5.5,164.326,85.825,33.463,190.988-8.86,374.579,1.494,542.174,6.99,631.183,25.863,721.768,74.8,796.3,177.043,951.946,326.593,1016.8,481.639,1015.993Z" transform="translate(943 3606)" fill="none" stroke="#f0b895" stroke-miterlimit="10" stroke-width="3.5"/>
          <path id="Stroke_1_Copy_5" data-name="Stroke 1 Copy 5" d="M184.447,13.114c-84.776,25.244-158.525,85.58-178,169.142-10.334,44.328-7.756,90.354,4.3,134.293.006.032.016.065.026.1q1.453,5.289,3.078,10.532c.071.227.149.454.217.681q1.458,4.642,3.061,9.242c.107.311.2.625.308.94.1.288.22.577.321.868a360.111,360.111,0,0,0,46.763,89.343c50.557,70.619,122.391,123.317,197.662,166.617,52.542,30.228,108.172,56.755,167.757,67.851s123.891,5.6,176.242-24.969c34.6-20.2,62.5-50.307,85.926-82.819,29.927-41.538,53.786-88.973,58.947-139.915s-10.665-105.708-49.228-139.371c-24.634-21.5-56.206-32.986-84.41-49.535C535.995,178.331,486.718,93.12,409.895,39.761,347.141-3.825,261.267-9.762,184.447,13.114Z" transform="translate(1650.09 5289.457) rotate(-160)" fill="none" stroke="#f0b895" stroke-miterlimit="10" stroke-width="3.5"/>
          <path id="Stroke_1-3" data-name="Stroke 1" d="M481.639,1015.993c155.612-.807,316.757-67.765,441.14-175.468,80.429-69.648,150.8-162.1,155.917-268.381,5.534-114.769-65.441-218.781-143.135-303.413-98.587-107.388-216.8-201.8-355.947-245.208C440.484-19.884,277.939-5.5,164.326,85.825,33.463,190.988-8.86,374.579,1.494,542.174,6.99,631.183,25.863,721.768,74.8,796.3,177.043,951.946,326.593,1016.8,481.639,1015.993Z" transform="translate(1852 3564)" fill="none" stroke="#f0b895" stroke-miterlimit="10" stroke-width="3.5"/>
          <path id="Stroke_1-4" data-name="Stroke 1" d="M481.639,1015.993c155.612-.807,316.757-67.765,441.14-175.468,80.429-69.648,150.8-162.1,155.917-268.381,5.534-114.769-65.441-218.781-143.135-303.413-98.587-107.388-216.8-201.8-355.947-245.208C440.484-19.884,277.939-5.5,164.326,85.825,33.463,190.988-8.86,374.579,1.494,542.174,6.99,631.183,25.863,721.768,74.8,796.3,177.043,951.946,326.593,1016.8,481.639,1015.993Z" transform="translate(1295 4725)" fill="none" stroke="#f0b895" stroke-miterlimit="10" stroke-width="3.5"/>
        </g>
      </g>
    </g>
  </g>
</svg>
