<svg xmlns="http://www.w3.org/2000/svg" width="1693.773" height="1725.817" viewBox="0 0 1693.773 1725.817">
  <g id="Group_1" data-name="Group 1" transform="translate(639.879 1282.605)">
    <path id="Stroke_1" data-name="Stroke 1" d="M-317.083,22.536C-171.344,65.92-44.563,169.612-11.076,313.217,6.69,389.4,2.257,468.5-18.466,544.008c-.011.056-.028.111-.045.167q-2.5,9.089-5.291,18.1c-.123.39-.256.78-.373,1.17q-2.506,7.978-5.263,15.883c-.184.535-.34,1.075-.529,1.615-.178.5-.379.991-.551,1.493a618.807,618.807,0,0,1-80.39,153.541c-86.912,121.363-210.4,211.928-339.8,286.342-90.326,51.949-185.959,97.538-288.392,116.606s-212.98,9.618-302.977-42.91c-59.484-34.718-107.44-86.455-147.716-142.33-51.448-71.385-92.464-152.906-101.336-240.453s18.334-181.665,84.629-239.517c42.348-36.957,96.624-56.688,145.109-85.13C-921.428,306.473-836.716,160.033-704.65,68.331-596.77-6.573-449.144-16.776-317.083,22.536Z" transform="matrix(0.588, 0.809, -0.809, 0.588, 1051.275, -234.173)" fill="none" stroke="#f0b895" stroke-miterlimit="10" stroke-width="3.5"/>
    <path id="Stroke_1-2" data-name="Stroke 1" d="M298.768,630c96.528-.5,196.489-42.02,273.646-108.8C622.3,478,665.958,420.679,669.132,354.774c3.433-71.166-40.594-135.661-88.789-188.14C519.188,100.045,445.86,41.5,359.543,14.585s-187.134-18-257.61,38.633C20.758,118.427-5.5,232.268.927,336.191,4.336,391.383,16.043,447.553,46.4,493.77,109.823,590.281,202.59,630.5,298.768,630Z" transform="translate(461.471 270.692) rotate(-130)" fill="none" stroke="#f0b895" stroke-miterlimit="10" stroke-width="3.5"/>
  </g>
</svg>
