<svg xmlns="http://www.w3.org/2000/svg" width="920.785" height="940.197" viewBox="0 0 920.785 940.197">
  <path id="Stroke_1" data-name="Stroke 1" d="M172.674,12.269C93.309,35.889,24.268,92.341,6.032,170.523-3.643,212-1.229,255.061,10.056,296.171c.006.03.015.061.024.091q1.36,4.948,2.881,9.854c.067.212.14.424.2.637q1.365,4.343,2.866,8.647c.1.291.185.585.288.879.1.27.206.54.3.813A336.863,336.863,0,0,0,60.4,400.684c47.33,66.073,114.578,115.379,185.045,155.892,49.189,28.282,101.268,53.1,157.05,63.483S518.475,625.3,567.484,596.7c32.393-18.9,58.508-47.068,80.441-77.488,28.017-38.864,50.353-83.246,55.185-130.909s-9.984-98.9-46.086-130.4c-23.061-20.12-52.619-30.862-79.022-46.347C501.782,166.852,455.65,87.126,383.731,37.2,324.983-3.579,244.59-9.133,172.674,12.269Z" transform="matrix(-0.574, 0.819, -0.819, -0.574, 918.254, 361.012)" fill="none" stroke="#f0b895" stroke-miterlimit="10" stroke-width="3.5"/>
</svg>
