<svg width="22" height="22" viewBox="0 0 22 22" fill="none" xmlns="http://www.w3.org/2000/svg">
<mask id="mask0" mask-type="alpha" maskUnits="userSpaceOnUse" x="0" y="0" width="22" height="22">
<path fill-rule="evenodd" clip-rule="evenodd" d="M0 0H22V22H0V0Z" fill="white"/>
</mask>
<g mask="url(#mask0)">
<path fill-rule="evenodd" clip-rule="evenodd" d="M1.61755 2.12186C1.52901 2.2611 1.56978 2.08454 1.37912 2.38871C1.3157 2.49024 1.24158 2.60621 1.17404 2.69329L0.599993 3.63391C0.483865 3.8779 0.456274 4.00189 0.364443 4.17324L0.111598 5.16001C0.092655 5.31732 0.0654762 5.44734 0.0444744 5.59742C0.0012354 5.90159 0.0045298 6.22945 0.0045298 6.5561C0.0053534 7.39399 0.037062 16.4037 0 16.563C0.143306 16.6308 0.126011 16.5887 0.167191 16.7657C0.18531 16.8439 0.205076 16.9804 0.221137 17.0711C0.252022 17.2464 0.465746 18.0033 0.533281 18.1297C0.566637 18.1923 0.623877 18.2456 0.672469 18.3439C0.712414 18.4254 0.721885 18.4996 0.764301 18.5811C0.819894 18.6903 0.850367 18.679 0.900195 18.803C0.977613 18.994 0.954553 18.8961 1.04021 19.0197C1.08798 19.0891 1.09909 19.1834 1.15057 19.2753L1.76374 20.0266C2.03182 20.2693 2.17348 20.4587 2.50333 20.6903C2.57704 20.742 2.62728 20.7629 2.70223 20.8235L2.89866 20.9852C3.00985 21.0647 3.02344 21.033 3.11897 21.0956C3.23387 21.1702 3.16798 21.1738 3.33146 21.2324C3.45047 21.275 3.45912 21.287 3.56042 21.34C3.74244 21.4363 3.64731 21.423 3.90304 21.5663C3.90839 21.5691 3.91581 21.5743 3.92075 21.5771L3.99899 21.6068C4.44415 21.6959 4.10688 21.6084 4.34408 21.7264C4.37249 21.7405 4.38526 21.7457 4.40379 21.7541C4.67269 21.8709 4.86253 21.7958 5.15491 21.8544L5.74337 21.9547C7.56559 22.0318 9.48746 21.9885 11.3476 21.9824C12.2869 21.9796 13.2258 21.9776 14.1651 21.976C14.6284 21.9752 15.0892 21.96 15.5277 21.9543C16.0236 21.9479 16.3909 21.8721 16.8307 21.8596C16.9176 21.8011 17.5423 21.7116 17.8762 21.5647C17.9158 21.5474 17.9516 21.533 17.9808 21.5189C18.0813 21.4708 18.1806 21.3953 18.3235 21.3536C18.5331 21.2926 18.3922 21.3528 18.5471 21.2481C18.5952 21.2152 18.6101 21.2156 18.6648 21.1859C18.7192 21.157 18.7295 21.1445 18.7768 21.1181C18.8674 21.0675 18.9062 21.0631 18.9893 20.9977C19.2932 20.7569 19.3332 20.8404 19.6186 20.6072C19.7232 20.5221 19.726 20.5703 19.8063 20.4712L20.3318 19.9583C20.368 19.8676 20.5492 19.6706 20.6275 19.5851L20.9392 19.1806C20.9656 19.1393 20.9516 19.1658 20.9746 19.1261C21.0022 19.0779 20.9969 19.0771 21.0236 19.0257L21.3695 18.4495C21.4363 18.3439 21.4144 18.3078 21.4659 18.2151C21.6611 17.8612 21.722 17.4146 21.8723 17.0815C21.9341 16.9439 21.9255 16.7151 21.9502 16.561C21.9646 16.1734 21.9967 15.8026 21.9967 15.382L21.9992 6.93973C21.9988 6.00593 22.0264 5.59581 21.7933 4.72502C21.5236 3.71738 21.1529 3.1319 20.5645 2.3233C20.4858 2.21496 20.3594 2.11624 20.2601 2.00468C19.8661 1.56246 19.0618 0.976981 18.5281 0.714538C16.9604 -0.055535 16.0734 0.00064539 14.2862 0.00104668L6.86471 0.00064539C5.92251 0.00064539 5.5313 0.0568258 4.67764 0.262286L4.17895 0.404342L3.75356 0.58131C3.6992 0.608196 3.68849 0.613814 3.62384 0.636287C3.45953 0.694072 3.09509 0.93645 2.96455 1.01671C2.26119 1.4501 2.14795 1.68646 1.72585 2.04962C1.67108 2.09698 1.71474 2.06046 1.66614 2.09377L1.61755 2.12186ZM5.78579 8.01237C5.74337 8.15363 5.54448 8.52602 5.45759 8.75917C5.35381 9.03646 5.23933 9.28044 5.17674 9.57459C4.98649 10.4663 5.00008 10.6516 5.03343 11.5915L5.0532 11.4602C5.1162 12.3475 5.2278 12.1693 5.27598 12.5477C5.29863 12.7243 5.29945 12.6168 5.33981 12.7592C5.46829 13.2123 5.50494 13.1794 5.55065 13.323C5.58854 13.4414 5.8558 13.9254 5.92333 14.0269L6.149 14.3399C6.27007 14.5939 6.41296 14.7287 6.59209 14.9418L6.85112 15.2187C6.85565 15.2231 6.86182 15.2295 6.86635 15.2336C6.87088 15.238 6.87706 15.244 6.88159 15.2484L6.91206 15.2769C6.95489 15.3154 6.94418 15.3058 6.99278 15.3423C7.02448 15.3664 7.03478 15.3732 7.06114 15.3925L7.13073 15.4466C7.22421 15.5297 7.49641 15.7745 7.58412 15.8231C7.78755 15.935 7.58371 15.8973 7.92592 16.0181L8.36242 16.2488C8.41513 16.2765 8.41802 16.2717 8.46537 16.2942C8.60703 16.362 8.55144 16.2881 8.59097 16.4186C8.98712 16.425 8.95583 16.561 9.37216 16.6132C9.64436 16.6473 9.53647 16.6385 9.639 16.6854C9.80084 16.7609 10.6121 16.8078 10.8328 16.8098C11.3163 16.8142 11.6379 16.8038 12.053 16.7135C12.1629 16.6894 12.2383 16.7035 12.3507 16.6738C12.8453 16.5422 12.646 16.6465 13.1059 16.4414C13.2682 16.3692 13.4461 16.3483 13.5783 16.2568C13.7175 16.1601 13.8859 16.1064 14.0383 16.0221L14.6317 15.6565C14.6362 15.6525 14.6428 15.6469 14.6481 15.6429C14.6531 15.6393 14.6601 15.6332 14.665 15.6296L14.7984 15.5265L15.6352 14.6914L16.0602 14.1384C16.0853 14.0197 16.1384 13.9699 16.199 13.882C16.3468 13.6661 16.7117 12.8094 16.7763 12.5915C16.8237 12.4302 16.9324 11.8704 16.9612 11.6408C17.0358 11.0505 17.0683 10.1332 16.8957 9.56095C16.8612 9.44457 16.8702 9.36993 16.8389 9.26118C16.78 9.05372 16.7195 8.85107 16.6548 8.6745L16.3089 7.88717C16.2554 7.8041 16.2513 7.84223 16.1553 7.68693C15.9778 7.3984 15.9997 7.3679 15.7686 7.1183L15.3058 6.62512L14.8816 6.30048C14.8124 6.24429 14.7622 6.18731 14.6906 6.13555C14.5715 6.04927 14.5526 6.0886 14.4447 5.98386C14.2326 5.7784 13.7236 5.63434 13.5511 5.53401C13.4914 5.4995 13.4939 5.48867 13.4453 5.47141C13.4066 5.45777 13.3349 5.44693 13.2991 5.4361C12.9976 5.34461 12.9663 5.37791 12.8325 5.31932C12.725 5.27237 12.0513 5.1865 11.8883 5.15359C11.5032 5.07534 10.8826 5.04565 10.4251 5.10464C10.2106 5.13192 9.81937 5.13674 9.569 5.217C9.55994 5.21981 9.46893 5.24749 9.43104 5.25913L9.15431 5.3438C8.9723 5.38754 8.42955 5.6552 8.33195 5.68731C8.21459 5.72623 8.17917 5.74108 8.08199 5.79766C7.80979 5.95617 7.43134 6.22102 7.19621 6.40722L7.0319 6.54366C7.00719 6.56212 7.00019 6.56533 6.9796 6.58138C6.8853 6.65642 6.50603 7.08981 6.42202 7.15843C6.34666 7.22063 5.98593 7.7724 5.78579 8.01237V8.01237ZM7.05125 10.9249C7.05166 11.2929 7.11673 11.9053 7.25839 12.195C7.35351 12.3892 7.25056 12.2969 7.41158 12.516C7.51741 12.6605 7.41446 12.618 7.63724 12.8872C7.73072 13.0004 7.66648 12.9871 7.77231 13.1107C7.91727 13.2809 7.92097 13.1834 7.99304 13.3535C8.05934 13.5092 8.02969 13.39 8.18123 13.5646L8.21047 13.5979C8.215 13.6023 8.222 13.6087 8.22694 13.6128C8.45425 13.8202 8.27842 13.76 8.46702 13.8836L8.74663 14.0819C8.82652 14.1445 8.77669 14.1376 8.87223 14.1954L9.35115 14.4631C9.82514 14.6561 10.4894 14.7789 11.0148 14.7805C11.6931 14.7825 12.5125 14.6413 13.0578 14.246C13.3934 14.0028 13.7747 13.7279 14.0424 13.4017L14.2153 13.1561C14.2207 13.1489 14.2355 13.1284 14.2405 13.1212C14.2767 13.0698 14.2985 13.0409 14.3401 12.9835L14.6197 12.5196L14.861 11.8041C14.9269 11.3507 15.0138 10.7777 14.9467 10.2885C14.9059 9.99353 14.8796 10.1376 14.8396 9.68334C14.8281 9.55091 14.5748 8.94376 14.5028 8.82338L14.0749 8.29608C14.0016 8.22265 13.9353 8.13156 13.8484 8.04528L13.5705 7.84223C13.332 7.6785 12.8638 7.45659 12.6068 7.36389C12.4294 7.29928 12.0419 7.16284 11.864 7.15442C11.4114 7.13275 10.4807 7.04406 10.0389 7.19695C9.87785 7.25273 9.83831 7.25434 9.65836 7.29647C9.1502 7.41525 9.02048 7.63075 8.86111 7.69816C8.70175 7.76518 8.56173 7.88757 8.43861 8.00114C8.40813 8.02883 8.34389 8.09303 8.31342 8.1155C8.07293 8.29167 8.03051 8.32939 7.8452 8.60347C7.50917 9.10027 7.50053 9.12274 7.2518 9.67652L7.06031 10.4253C7.04466 10.5674 7.05208 10.7768 7.05125 10.9249V10.9249ZM18.4927 4.90319C18.4927 4.54243 18.4206 4.18649 18.1394 3.95254C17.8672 3.72621 17.6584 3.59459 17.1638 3.59539C16.8574 3.59579 16.5873 3.68769 16.3859 3.8181C16.3431 3.84619 16.1314 4.01112 16.101 4.04483C16.0544 4.0966 16.0516 4.1287 16.0079 4.1905C15.9667 4.24788 15.921 4.28641 15.893 4.34179C15.7732 4.57855 15.7242 4.97582 15.7806 5.2186C15.7966 5.28682 15.8115 5.28762 15.8382 5.40199C15.905 5.6853 16.1475 5.97623 16.4312 6.09181C16.9526 6.30288 17.3261 6.38515 17.8655 6.09261C17.9664 6.03803 17.938 6.03883 18.0377 5.96339L18.0723 5.93691C18.0772 5.9333 18.0842 5.92768 18.0896 5.92367C18.3239 5.73586 18.2329 5.76315 18.3457 5.57775C18.5281 5.2792 18.4927 5.36788 18.4927 4.90319V4.90319ZM1.75262 5.97583C1.73533 5.5284 1.79421 5.64557 1.81563 5.4044C1.82716 5.27799 1.83169 5.22703 1.87863 5.12791C1.9507 4.97502 1.90087 5.02959 1.94246 4.87229C1.98611 4.70495 2.00052 4.85865 2.031 4.63754C2.05818 4.44532 2.04376 4.51715 2.12365 4.38914C2.2579 4.17565 2.29908 3.95414 2.46339 3.77276C2.5128 3.71858 2.54369 3.63552 2.59146 3.57372L3.16221 2.977C3.16715 2.97299 3.17333 2.96657 3.17827 2.96256C3.1828 2.95814 3.18939 2.95212 3.19433 2.94811L3.22728 2.92042C3.43524 2.74145 3.67037 2.50188 3.96605 2.33936C4.23083 2.19369 3.8981 2.32451 4.38073 2.09698C4.89424 1.8542 4.82588 1.92643 5.33363 1.75749C6.01557 1.53076 7.01378 1.62185 7.83408 1.62185C9.59082 1.62185 11.3476 1.62265 13.1047 1.62306C13.9246 1.62306 15.6047 1.56768 16.3328 1.69248L16.8542 1.80885C17.1202 1.92683 17.2622 1.90637 17.3944 1.94248L17.9055 2.2302C18.1159 2.33253 18.1699 2.45011 18.3589 2.58334C18.5639 2.7278 18.7377 2.79201 18.9436 2.99145C19.0198 3.06569 19.0095 3.0998 19.0894 3.17363C19.4254 3.48343 19.1726 3.33937 19.3509 3.54041C19.4538 3.65679 19.5547 3.7868 19.6301 3.92164C19.6742 4.00029 19.6976 4.0645 19.7421 4.13552C19.7454 4.14114 19.7503 4.14796 19.754 4.15358C19.7573 4.1592 19.7623 4.16642 19.7656 4.17204C19.7693 4.17766 19.7738 4.18488 19.7779 4.1905L19.8632 4.34821C19.9216 4.51996 19.8541 4.40238 19.9595 4.63794C20.0143 4.76113 19.9542 4.66121 20.0468 4.80969L20.2029 5.28562C20.2268 5.406 20.2363 5.44172 20.2643 5.54686C20.3293 5.79084 20.3022 7.13475 20.3022 7.44134C20.3022 8.95059 20.3652 15.748 20.2531 16.4033C20.2157 16.6244 20.207 16.7552 20.1284 16.9362C20.0188 17.1886 20.0098 17.3146 19.9171 17.5269L19.7631 17.8504C19.7475 17.8793 19.7137 17.9358 19.6956 17.9639C19.5057 18.2504 19.6223 18.2123 19.2891 18.5462L18.9222 18.9455C18.6327 19.0639 18.972 18.8953 18.641 19.1838C18.5808 19.2364 18.5788 19.2685 18.5203 19.3299C18.4598 19.3933 18.4569 19.3833 18.3774 19.4314C18.2629 19.5005 18.176 19.5595 18.0669 19.6297C17.8581 19.7641 17.9998 19.6871 17.7486 19.8207L17.0086 20.1321C16.7141 20.2039 16.5037 20.2834 16.1656 20.3159C15.5179 20.3781 14.7853 20.35 14.1046 20.3472C13.4078 20.3444 12.7106 20.3428 12.0143 20.3428C10.9391 20.3424 6.69134 20.3845 5.7965 20.2862C5.35958 20.2384 5.43247 20.1903 5.17633 20.1277C4.73446 20.0197 4.29507 19.8163 3.90428 19.5952L3.59707 19.3909C3.53819 19.3556 3.3957 19.2059 3.34135 19.1385C3.17786 18.9371 3.19145 19.1245 3.06214 18.9074C2.90937 18.6517 2.99132 18.8548 2.82001 18.6136C2.70264 18.4487 2.62811 18.3379 2.46874 18.1899C2.46421 18.1854 2.45762 18.1798 2.45309 18.1758C2.33408 18.0663 2.37114 18.0783 2.28137 17.8704C2.22743 17.7448 2.25625 17.8038 2.19654 17.7171C1.97129 17.3909 2.10553 17.2998 1.93875 16.9286C1.84816 16.726 1.85228 16.744 1.82592 16.5293C1.80163 16.3335 1.78062 16.2769 1.74768 16.1092C1.67726 15.7492 1.72627 10.628 1.72709 10.01C1.7275 9.47066 1.67561 6.19253 1.75262 5.97583V5.97583Z" fill="#F5F4F2"/>
</g>
</svg>
