<svg width="17" height="22" viewBox="0 0 17 22" fill="none" xmlns="http://www.w3.org/2000/svg">
<mask id="mask0" mask-type="alpha" maskUnits="userSpaceOnUse" x="0" y="0" width="17" height="22">
<path fill-rule="evenodd" clip-rule="evenodd" d="M0 0H16.8597V21.9347H0V0Z" fill="white"/>
</mask>
<g mask="url(#mask0)">
<path fill-rule="evenodd" clip-rule="evenodd" d="M2.08228 12.4206C0.666142 11.617 0.0312116 9.48939 0.00116505 7.94219C-0.058928 4.85259 2.21354 1.89739 4.99521 0.728988C6.42875 0.127388 8.49207 -0.287812 11.2148 0.245788C11.2148 0.245788 15.2711 1.15459 16.5505 5.23099C16.5505 5.23099 17.5851 8.39859 15.8701 11.8966C15.8701 11.8966 14.5903 15.3122 10.9697 15.7802C10.9697 15.7802 8.17896 16.2902 7.06289 14.2106C6.73277 15.5246 6.44179 16.9954 6.00098 18.267C5.84047 18.729 5.60089 19.3266 5.29291 19.8294C5.09682 20.199 4.03926 22.0426 3.75223 21.9298C3.48498 21.8246 3.44782 19.1726 3.45493 18.9106C3.45493 17.7578 3.79296 16.5914 4.0523 15.4694L5.29212 10.1102C5.29212 10.1102 4.50221 8.56779 5.08772 6.76379C5.08772 6.76379 5.59061 4.83819 7.35544 4.83339C9.13965 4.82899 9.14637 6.78339 8.75379 8.07939C8.67512 8.34019 8.58498 8.62699 8.49286 8.92299C8.209 9.83699 7.90419 10.8426 7.84172 11.4594C7.82314 11.6494 7.8263 11.8614 7.86347 12.0774C7.9457 12.5554 8.20347 13.0582 8.8301 13.4154C8.8301 13.4154 9.99914 14.0682 11.3196 13.239C12.5484 12.4674 13.188 10.9498 13.5257 9.59299C14.1926 6.90899 13.9582 3.76059 11.0879 2.50419C9.12147 1.64379 6.1947 2.09259 4.63782 3.47059C2.59861 5.27659 1.51219 8.64899 3.28928 10.6202C3.5771 10.9114 3.5083 11.093 3.42844 11.4298L3.211 12.3482C3.07856 12.9582 2.43098 12.6186 2.08228 12.4206" fill="#F5F4F2"/>
</g>
</svg>
