<svg width="27" height="22" viewBox="0 0 27 22" fill="none" xmlns="http://www.w3.org/2000/svg">
<mask id="mask0" mask-type="alpha" maskUnits="userSpaceOnUse" x="0" y="0" width="27" height="22">
<path fill-rule="evenodd" clip-rule="evenodd" d="M0 0H26.6507V21.8558H0V0Z" fill="white"/>
</mask>
<g mask="url(#mask0)">
<path fill-rule="evenodd" clip-rule="evenodd" d="M13.1102 6.7877C13.1102 6.7877 12.2006 3.72688 14.7966 1.44396C17.0803 -0.564245 20.2776 -0.502194 22.4522 1.78355C22.4522 1.78355 24.66 1.32268 25.9234 0.401498C25.9234 0.401498 25.4385 2.32114 23.5114 3.48545C23.5114 3.48545 25.3238 3.28068 26.6513 2.6156C26.6513 2.6156 25.6174 4.2797 23.9068 5.45699C24.3152 10.9017 21.1427 16.8225 16.4959 19.6092C11.3197 22.7129 5.17444 22.5651 0 19.3886C0 19.3886 4.35487 20.0475 8.08144 17.0781C8.08144 17.0781 4.40606 17.3082 2.92556 13.2388C2.92556 13.2388 3.95887 13.571 5.40112 13.1485C5.40112 13.1485 1.12556 12.4067 0.972562 7.72186C0.972562 7.72186 1.96819 8.33673 3.49988 8.3875C3.49988 8.3875 -0.53325 6.12206 1.73812 1.00283C1.73812 1.00283 5.59237 6.60888 13.1102 6.7877" fill="#F5F4F2"/>
</g>
</svg>
