<svg id="Group_4" data-name="Group 4" xmlns="http://www.w3.org/2000/svg" xmlns:xlink="http://www.w3.org/1999/xlink" width="33" height="28" viewBox="0 0 33 28">
  <defs>
    <clipPath id="clip-path">
      <path id="Clip_2" data-name="Clip 2" d="M0,0H33V28H0Z" fill="none"/>
    </clipPath>
  </defs>
  <g id="Group_3" data-name="Group 3" clip-path="url(#clip-path)">
    <path id="Fill_1" data-name="Fill 1" d="M16.506,28a.464.464,0,0,1-.26-.072c-.587-.4-1.185-.808-1.763-1.2-2.677-1.818-5.446-3.7-8.015-5.742-3.3-2.627-5.217-5.177-6.026-8.023A11.074,11.074,0,0,1,2.17,3.214,8.385,8.385,0,0,1,5.75.445,6.813,6.813,0,0,1,8.216,0,7.951,7.951,0,0,1,10.677.4,9.724,9.724,0,0,1,16.5,5.884a10.168,10.168,0,0,1,2.66-3.677A8.866,8.866,0,0,1,24.319.015c.151-.01.3-.015.456-.015a7.418,7.418,0,0,1,5.24,2.266A11.059,11.059,0,0,1,32.157,14.15C30.753,17.515,28,19.9,25.5,21.79c-2.771,2.092-5.594,4.017-8.732,6.138A.475.475,0,0,1,16.506,28ZM8.285,1.035c-3.192,0-5.409,2.427-6.419,4.7a10.448,10.448,0,0,0,.468,9.151c1.512,2.8,4.135,4.871,6.476,6.6,2.252,1.66,4.6,3.265,6.874,4.817l.025.017.8.547c3.011-2.035,5.528-3.771,8.024-5.626,2.679-1.992,5.336-4.262,6.628-7.358a10.592,10.592,0,0,0,.569-6.367c-.739-3.217-3.382-6.474-7-6.474a6.3,6.3,0,0,0-1.212.12A8.727,8.727,0,0,0,17,7.6a.522.522,0,0,1-1,0,8.606,8.606,0,0,0-7.2-6.542C8.632,1.042,8.457,1.035,8.285,1.035Z" transform="translate(0 0)" fill="#eb7e68"/>
  </g>
  <path id="Fill_4" data-name="Fill 4" d="M18.512,4.505c-.788.007-1.575.008-2.363.01L15.37,2.1c-.124-.385-.729-.562-.924-.125L12.8,5.691,11.31.418c-.129-.458-.892-.535-.975,0L9.052,8.735,7.883,3.39,7.637,2.263a.5.5,0,0,0-.975,0L5.485,6.514l-1-6.141c-.087-.535-.842-.457-.975,0L2.315,4.479Q1.4,4.492.488,4.505a.523.523,0,0,0,0,1.044c.735-.009,1.47-.021,2.205-.032a.521.521,0,0,0,.487-.383L3.858,2.8,4.872,9.005c.087.531.847.462.975,0l1.245-4.5L8.4,10.5l.247,1.127a.5.5,0,0,0,.975,0l1.342-8.7L12.2,7.317c.112.4.734.552.924.125l1.683-3.783L15.3,5.177a.523.523,0,0,0,.487.383c.909,0,1.818,0,2.726-.011a.523.523,0,0,0,0-1.044" transform="translate(7 10)" fill="#eb7e68"/>
</svg>
