<svg id="Group_5" data-name="Group 5" xmlns="http://www.w3.org/2000/svg" xmlns:xlink="http://www.w3.org/1999/xlink" width="26" height="29" viewBox="0 0 26 29">
  <defs>
    <clipPath id="clip-path">
      <path id="Clip_2" data-name="Clip 2" d="M0,0H26V29H0Z" fill="none"/>
    </clipPath>
  </defs>
  <g id="Group_3" data-name="Group 3">
    <path id="Clip_2-2" data-name="Clip 2" d="M0,0H26V29H0Z" fill="none"/>
    <g id="Group_3-2" data-name="Group 3" clip-path="url(#clip-path)">
      <path id="Fill_1" data-name="Fill 1" d="M21.406,29H10.3a.579.579,0,0,1-.58-.577V26.5a1.375,1.375,0,0,0-1.376-1.37H6.253a3.2,3.2,0,0,1-3.2-3.187V18.014l-1.931-.553a1.548,1.548,0,0,1-.806-2.424l2.737-4v-.077a10.55,10.55,0,0,1,.087-1.3A8.8,8.8,0,0,1,6.077,3.562,11.421,11.421,0,0,1,9.938.921,11.9,11.9,0,0,1,14.556,0a12.3,12.3,0,0,1,1.919.151,11.142,11.142,0,0,1,9.347,8.854,10.678,10.678,0,0,1-3.836,10.288v9.13A.579.579,0,0,1,21.406,29ZM14.556,1.154A10.61,10.61,0,0,0,6.9,4.374L6.87,4.4A7.662,7.662,0,0,0,4.3,9.747c0,.015,0,.029,0,.043a9.523,9.523,0,0,0-.081,1.174v.256a.576.576,0,0,1-.1.326L1.265,15.7l-.022.03a.4.4,0,0,0,.2.622l2.348.673a.58.58,0,0,1,.419.554v4.361a2.039,2.039,0,0,0,2.041,2.032H8.342A2.533,2.533,0,0,1,10.877,26.5v1.347h9.949V19.016a.575.575,0,0,1,.223-.455,9.529,9.529,0,0,0,3.631-9.35,9.982,9.982,0,0,0-8.387-7.919A11.14,11.14,0,0,0,14.556,1.154Z" transform="translate(0)" fill="#eb7e68"/>
    </g>
  </g>
  <path id="Fill_4" data-name="Fill 4" d="M7.432,13H5.568a.566.566,0,0,1-.541-.4l-.293-1-.588-.243-.914.5a.566.566,0,0,1-.27.069.558.558,0,0,1-.4-.165L1.245,10.437a.558.558,0,0,1-.1-.669l.5-.915-.243-.588-1-.293A.561.561,0,0,1,0,7.432V5.568a.566.566,0,0,1,.405-.541l1-.293.243-.589-.5-.914a.564.564,0,0,1,.1-.669L2.563,1.245a.563.563,0,0,1,.669-.1l.914.5.588-.242.293-1A.566.566,0,0,1,5.568,0H7.432a.566.566,0,0,1,.54.405l.293,1,.588.242.915-.5a.563.563,0,0,1,.669.1l1.318,1.319a.566.566,0,0,1,.1.669l-.5.914.243.589,1,.293a.566.566,0,0,1,.4.541V7.432a.561.561,0,0,1-.4.541l-1,.293-.243.588.5.915a.56.56,0,0,1-.1.669l-1.318,1.318a.563.563,0,0,1-.669.1l-.915-.5-.588.243-.293,1A.566.566,0,0,1,7.432,13ZM4.113,10.164a.561.561,0,0,1,.214.042l1.087.449a.559.559,0,0,1,.325.363l.251.856H7.01l.25-.856a.557.557,0,0,1,.326-.363l1.086-.449a.565.565,0,0,1,.486.027l.78.428.722-.721-.428-.781a.562.562,0,0,1-.027-.486l.449-1.086a.557.557,0,0,1,.363-.326l.856-.25V5.99l-.856-.25a.562.562,0,0,1-.363-.326l-.449-1.087a.561.561,0,0,1,.027-.485l.428-.781L9.939,2.34l-.78.428a.564.564,0,0,1-.27.069.557.557,0,0,1-.216-.043L7.586,2.345a.561.561,0,0,1-.326-.363l-.25-.856H5.99l-.251.856a.562.562,0,0,1-.325.363l-1.087.448a.556.556,0,0,1-.215.043.563.563,0,0,1-.27-.069L3.061,2.34l-.721.721.428.781a.558.558,0,0,1,.026.485L2.345,5.414a.566.566,0,0,1-.363.326l-.856.25V7.01l.856.25a.561.561,0,0,1,.363.326l.448,1.086a.559.559,0,0,1-.026.486L2.34,9.94l.721.721.781-.428A.565.565,0,0,1,4.113,10.164ZM6.5,9.222A2.722,2.722,0,1,1,9.222,6.5,2.725,2.725,0,0,1,6.5,9.222ZM6.5,4.9A1.6,1.6,0,1,0,8.1,6.5,1.6,1.6,0,0,0,6.5,4.9Z" transform="translate(8 5)" fill="#eb7e68"/>
</svg>
