<svg id="Group_5" data-name="Group 5" xmlns="http://www.w3.org/2000/svg" xmlns:xlink="http://www.w3.org/1999/xlink" width="28" height="28" viewBox="0 0 28 28">
  <defs>
    <clipPath id="clip-path">
      <path id="Clip_4" data-name="Clip 4" d="M0,0H28V28H0Z" fill="none"/>
    </clipPath>
  </defs>
  <path id="Clip_4-2" data-name="Clip 4" d="M0,0H28V28H0Z" fill="none"/>
  <g id="Group_5-2" data-name="Group 5" clip-path="url(#clip-path)">
    <path id="Fill_3" data-name="Fill 3" d="M18.492,28a5.988,5.988,0,0,1-3.661-1.5H10.98v-1.5H7.013a3.523,3.523,0,0,1-3.519-3.519V14.524H2.021A2.024,2.024,0,0,1,0,12.5V2.021A2.024,2.024,0,0,1,2.021,0H7.013A2.024,2.024,0,0,1,9.034,2.021V9.509A2.024,2.024,0,0,1,7.013,11.53H2.021a.973.973,0,1,0,0,1.946h8.984a.973.973,0,1,0,0-1.946h-1.5V10.481h1.5a2.02,2.02,0,0,1,.973.25V3.02a.974.974,0,0,0-.973-.973H9.55V1h1.455A2.024,2.024,0,0,1,13.027,3.02V12.5a2.024,2.024,0,0,1-2.021,2.021H9.034V15.5a2.473,2.473,0,0,0,2.47,2.47h6.988a2.473,2.473,0,0,0,2.47-2.47V14.025H19.49a2.523,2.523,0,0,1-2.521-2.52V1.523A1.525,1.525,0,0,1,18.492,0h7.986A1.524,1.524,0,0,1,28,1.523V11.5a2.523,2.523,0,0,1-2.521,2.52H22.01V15.5a3.523,3.523,0,0,1-3.518,3.519H11.5A3.523,3.523,0,0,1,7.986,15.5v-.973H4.542v6.962a2.473,2.473,0,0,0,2.47,2.47H10.98v-1.5h3.851a5.99,5.99,0,0,1,3.661-1.5,6.627,6.627,0,0,1,4.041,1.228,3.217,3.217,0,0,1,1.474,2.291,3.217,3.217,0,0,1-1.474,2.292A6.627,6.627,0,0,1,18.492,28Zm0-5.99A5.546,5.546,0,0,0,15.024,23.7v1.57a5.542,5.542,0,0,0,3.469,1.685c3.123,0,4.467-1.875,4.467-2.471S21.615,22.01,18.492,22.01Zm-6.464,1.5v1.946h1.947V23.508Zm6.464-22.46a.475.475,0,0,0-.474.474V11.5a1.474,1.474,0,0,0,1.472,1.472h5.989A1.474,1.474,0,0,0,26.951,11.5V1.523a.474.474,0,0,0-.473-.474Zm-16.471,0a.974.974,0,0,0-.973.973v8.709a2.03,2.03,0,0,1,.973-.249H7.013a.974.974,0,0,0,.973-.973V2.021a.974.974,0,0,0-.973-.973Z" transform="translate(0 0)" fill="#eb7e68"/>
  </g>
</svg>
