<svg id="Group_8" data-name="Group 8" xmlns="http://www.w3.org/2000/svg" xmlns:xlink="http://www.w3.org/1999/xlink" width="26" height="25" viewBox="0 0 26 25">
  <defs>
    <clipPath id="clip-path">
      <path id="Clip_2" data-name="Clip 2" d="M0,0H26V25H0Z" fill="none"/>
    </clipPath>
  </defs>
  <g id="Group_3" data-name="Group 3">
    <path id="Clip_2-2" data-name="Clip 2" d="M0,0H26V25H0Z" fill="none"/>
    <g id="Group_3-2" data-name="Group 3" clip-path="url(#clip-path)">
      <path id="Fill_1" data-name="Fill 1" d="M23.051,25H2.949A2.942,2.942,0,0,1,0,22.073V2.928A2.942,2.942,0,0,1,2.949,0h20.1A2.942,2.942,0,0,1,26,2.928V22.073A2.942,2.942,0,0,1,23.051,25ZM2.949.968A1.969,1.969,0,0,0,.975,2.928V22.073a1.969,1.969,0,0,0,1.975,1.959h20.1a1.969,1.969,0,0,0,1.975-1.959V2.928A1.969,1.969,0,0,0,23.051.968Z" transform="translate(0 0)" fill="#eb7e68"/>
    </g>
  </g>
  <path id="Fill_4" data-name="Fill 4" d="M11.948,7a.519.519,0,0,1-.35-.132A5.306,5.306,0,0,0,8,5.505,5.3,5.3,0,0,0,4.4,6.868a.529.529,0,0,1-.7,0L.145,3.614a.425.425,0,0,1,0-.64A11.583,11.583,0,0,1,8,0a11.583,11.583,0,0,1,7.855,2.975.427.427,0,0,1,0,.64L12.3,6.868A.519.519,0,0,1,11.948,7ZM8,4.6A6.42,6.42,0,0,1,11.933,5.92L14.8,3.3A10.634,10.634,0,0,0,8,.905,10.634,10.634,0,0,0,1.2,3.3L4.066,5.92A6.426,6.426,0,0,1,8,4.6Z" transform="translate(5 4)" fill="#eb7e68"/>
  <path id="Fill_6" data-name="Fill 6" d="M.5,3a.474.474,0,0,1-.236-.063.537.537,0,0,1-.2-.708L1.068.273a.483.483,0,0,1,.672-.21.537.537,0,0,1,.2.709L.932,2.727A.493.493,0,0,1,.5,3" transform="translate(14 7)" fill="#eb7e68"/>
</svg>
