<svg xmlns="http://www.w3.org/2000/svg" width="35.13" height="40.107" viewBox="0 0 35.13 40.107">
  <g id="Group_21" data-name="Group 21" transform="translate(1.007 1)">
    <path id="Stroke_1" data-name="Stroke 1" d="M8.481,2.738C7.622.209,4.384-.352,3.463.186,2.41.8,4.743,4.729,2.237,12.01A36.793,36.793,0,0,0,.042,20.43C-.709,30.039,8.671,34.9,14.876,32.312L24,28.45" transform="translate(0 5)" fill="none" stroke="#f0b996" stroke-miterlimit="10" stroke-width="2"/>
    <path id="Stroke_3" data-name="Stroke 3" d="M19.821,16.033V3A2.6,2.6,0,0,0,17.648.395C14.857.133,12.391,0,9.917,0S4.967.133,2.148.4A2.6,2.6,0,0,0,0,3V31a2.6,2.6,0,0,0,2.173,2.605c2.792.265,5.457.393,8.15.393a63.81,63.81,0,0,0,7.049-.338c1.26-.19,2.627-1.047,2.627-2.281" transform="translate(8)" fill="none" stroke="#f0b996" stroke-miterlimit="10" stroke-width="2"/>
    <path id="Stroke_5" data-name="Stroke 5" d="M6.824,1.247A2.286,2.286,0,0,0,4.7,0a2.453,2.453,0,0,0-.855.149L1.4,1.08A1.976,1.976,0,0,0,.176,3.754,2.291,2.291,0,0,0,2.3,5a2.438,2.438,0,0,0,.856-.15L5.6,3.92A1.973,1.973,0,0,0,6.824,1.247Z" transform="translate(25 21)" fill="none" stroke="#f0b996" stroke-miterlimit="10" stroke-width="2"/>
    <path id="Stroke_7" data-name="Stroke 7" d="M2.7,4.851l2.1-.93A2.079,2.079,0,0,0,5.849,1.247,1.936,1.936,0,0,0,4.033,0,1.841,1.841,0,0,0,3.3.149l-2.1.93A2.081,2.081,0,0,0,.151,3.753,1.938,1.938,0,0,0,1.97,5,1.83,1.83,0,0,0,2.7,4.851Z" transform="translate(26 26)" fill="none" stroke="#f0b996" stroke-miterlimit="10" stroke-width="2"/>
    <path id="Stroke_9" data-name="Stroke 9" d="M.17,3.682A2.191,2.191,0,0,0,2.219,5a2.186,2.186,0,0,0,.826-.157l1.6-.7A2.147,2.147,0,0,0,5.83,1.32,2.194,2.194,0,0,0,3.781,0a2.169,2.169,0,0,0-.827.159l-1.6.7A2.146,2.146,0,0,0,.17,3.682Z" transform="translate(25 15)" fill="none" stroke="#f0b996" stroke-miterlimit="10" stroke-width="2"/>
    <path id="Stroke_11" data-name="Stroke 11" d="M0,.5H5" transform="translate(16 30)" fill="none" stroke="#f0b996" stroke-linecap="round" stroke-miterlimit="10" stroke-width="2"/>
    <path id="Stroke_13" data-name="Stroke 13" d="M0,.5H2" transform="translate(17 2)" fill="none" stroke="#f0b996" stroke-linecap="round" stroke-miterlimit="10" stroke-width="2"/>
    <path id="Stroke_15" data-name="Stroke 15" d="M0,.5H18" transform="translate(8 27)" fill="none" stroke="#f0b996" stroke-miterlimit="10" stroke-width="2"/>
    <path id="Stroke_17" data-name="Stroke 17" d="M0,.5H20" transform="translate(8 4)" fill="none" stroke="#f0b996" stroke-miterlimit="10" stroke-width="2"/>
    <path id="Stroke_19" data-name="Stroke 19" d="M0,7,4.432,5.074a2.724,2.724,0,0,0,1.37-3.5A2.268,2.268,0,0,0,2.8.137C2.4.254.527.927,0,1.152" transform="translate(27 7)" fill="none" stroke="#f0b996" stroke-miterlimit="10" stroke-width="2"/>
  </g>
</svg>
