<svg xmlns="http://www.w3.org/2000/svg" width="67.028" height="76.205" viewBox="0 0 67.028 76.205">
  <g id="Group_21" data-name="Group 21" transform="translate(1.012 1)">
    <path id="Stroke_1" data-name="Stroke 1" d="M16.254,5.392C14.609.412,8.4-.693,6.637.367,4.62,1.582,9.09,9.314,4.287,23.655,2.3,29.568.455,35.338.081,40.241c-1.44,18.926,16.539,28.495,28.431,23.4L46,56.039" transform="translate(0 9)" fill="none" stroke="#f0b996" stroke-miterlimit="10" stroke-width="2"/>
    <path id="Stroke_3" data-name="Stroke 3" d="M37.659,31.124V5.827A5.023,5.023,0,0,0,33.532.766C28.229.259,23.543,0,18.842,0S9.437.259,4.08.775A5.012,5.012,0,0,0,0,5.827V60.179a5.017,5.017,0,0,0,4.13,5.058c5.3.515,10.368.763,15.485.763a118.686,118.686,0,0,0,13.394-.656C35.4,64.975,38,63.312,38,60.916" transform="translate(16)" fill="none" stroke="#f0b996" stroke-miterlimit="10" stroke-width="2"/>
    <path id="Stroke_5" data-name="Stroke 5" d="M12.673,2.495A4.208,4.208,0,0,0,8.733,0,4.265,4.265,0,0,0,7.145.3L2.6,2.159A4.042,4.042,0,0,0,.326,7.508,4.216,4.216,0,0,0,4.266,10a4.24,4.24,0,0,0,1.589-.3L10.4,7.839A4.035,4.035,0,0,0,12.673,2.495Z" transform="translate(50 40)" fill="none" stroke="#f0b996" stroke-miterlimit="10" stroke-width="2"/>
    <path id="Stroke_7" data-name="Stroke 7" d="M4.953,8.732,8.8,7.057a3.716,3.716,0,0,0,1.921-4.812A3.55,3.55,0,0,0,7.393,0,3.429,3.429,0,0,0,6.046.268L2.2,1.942A3.719,3.719,0,0,0,.277,6.756,3.553,3.553,0,0,0,3.611,9,3.408,3.408,0,0,0,4.953,8.732Z" transform="translate(51 51)" fill="none" stroke="#f0b996" stroke-miterlimit="10" stroke-width="2"/>
    <path id="Stroke_9" data-name="Stroke 9" d="M.312,7.364A4.009,4.009,0,0,0,4.068,10a3.717,3.717,0,0,0,1.514-.315L8.521,8.292A4.438,4.438,0,0,0,10.688,2.64,4.014,4.014,0,0,0,6.931,0,3.689,3.689,0,0,0,5.415.317l-2.937,1.4A4.436,4.436,0,0,0,.312,7.364Z" transform="translate(50 30)" fill="none" stroke="#f0b996" stroke-miterlimit="10" stroke-width="2"/>
    <path id="Stroke_11" data-name="Stroke 11" d="M0,.5H9" transform="translate(31 59)" fill="none" stroke="#f0b996" stroke-linecap="round" stroke-miterlimit="10" stroke-width="2"/>
    <path id="Stroke_13" data-name="Stroke 13" d="M0,.5H3" transform="translate(34 5)" fill="none" stroke="#f0b996" stroke-linecap="round" stroke-miterlimit="10" stroke-width="2"/>
    <path id="Stroke_15" data-name="Stroke 15" d="M0,.5H35" transform="translate(16 53)" fill="none" stroke="#f0b996" stroke-miterlimit="10" stroke-width="2"/>
    <path id="Stroke_17" data-name="Stroke 17" d="M0,.5H38" transform="translate(16 9)" fill="none" stroke="#f0b996" stroke-miterlimit="10" stroke-width="2"/>
    <path id="Stroke_19" data-name="Stroke 19" d="M0,13,8.126,9.424a5.084,5.084,0,0,0,2.512-6.5,4.148,4.148,0,0,0-5.5-2.67C4.405.471.966,1.721,0,2.139" transform="translate(54 13)" fill="none" stroke="#f0b996" stroke-miterlimit="10" stroke-width="2"/>
  </g>
</svg>
